:FULLY-SPECIFIED
:FORCE-ALL-JOINTS-BE-3DOF
:DEGREES
33
root 7.98788 15.7203 -32.1549 7.66184 -8.04275 -7.14029
lfemur -41.301 5.58767 -9.26749
ltibia 24.2109 0 0
lfoot -8.82792 11.3192 0
ltoes -11.9801 0 0
rfemur 19.1824 6.8472 30.4618
rtibia 1.10731e-14 0 0
rfoot -12.4544 -0.679814 0
rtoes -24.3179 0 0
lowerback -8.42238 1.49071 3.66283
upperback -0.987359 1.49562 3.6342
thorax 3.69748 0.768167 1.88676
lowerneck -20.7505 -4.52985 -11.7078
upperneck 16.3097 -5.80023 14.583
head 9.36304 -1.9102 6.2421
lclavicle -1.51799e-14 -3.91679e-15 0
lhumerus -43.2417 -8.19193 91.2133
lradius 26.0264 0 0
lwrist 3.19303 0 0
lhand -10.6675 -24.2124 0
lfingers 7.12502 0 0
lthumb 15.3436 5.23065 0
rclavicle -1.51799e-14 -3.91679e-15 0
rhumerus -44.1336 20.7699 -93.0283
rradius 60.5926 0 0
rwrist -29.6353 0 0
rhand -30.3455 -30.808 0
rfingers 7.12502 0 0
rthumb -3.65105 -60.7566 0
34
root 8.01686 15.7097 -31.9878 7.69621 -8.14013 -7.11619
lfemur -41.701 6.15017 -9.6564
ltibia 25.4847 0 0
lfoot -6.67849 10.8246 0
ltoes -10.7046 0 0
rfemur 19.7915 6.76012 30.2041
rtibia 4.96963e-15 0 0
rfoot -11.5092 -0.847636 0
rtoes -15.0617 0 0
lowerback -8.56112 1.44641 3.46998
upperback -0.961228 1.44051 3.73633
thorax 3.79528 0.737829 2.09972
lowerneck -20.8737 -4.5335 -11.6264
upperneck 16.2605 -5.77912 14.4328
head 9.35679 -1.90653 6.17418
lclavicle -1.32806e-14 -1.04238e-14 0
lhumerus -43.4531 -8.23726 91.4894
lradius 25.9088 0 0
lwrist 3.09376 0 0
lhand -10.7777 -23.7815 0
lfingers 7.12502 0 0
lthumb 15.2393 5.69119 0
rclavicle -1.32806e-14 -1.04238e-14 0
rhumerus -44.2601 20.8636 -93.147
rradius 60.2022 0 0
rwrist -29.3946 0 0
rhand -30.1869 -30.4733 0
rfingers 7.12502 0 0
rthumb -3.49797 -60.4247 0
35
root 8.04585 15.6991 -31.8208 7.71959 -8.24555 -7.08042
lfemur -42.1012 6.68035 -10.0361
ltibia 26.8177 0 0
lfoot -4.55015 10.3545 0
ltoes -9.34664 0 0
rfemur 20.411 6.68019 29.9317
rtibia -8.24576e-16 0 0
rfoot -10.4585 -1.00769 0
rtoes -6.04085 0 0
lowerback -8.67461 1.40571 3.27052
upperback -0.93993 1.39287 3.83205
thorax 3.87417 0.711043 2.30944
lowerneck -20.988 -4.53998 -11.551
upperneck 16.2023 -5.76189 14.2918
head 9.347 -1.90456 6.10982
lclavicle -1.11571e-14 -1.67347e-14 0
lhumerus -43.6565 -8.27644 91.7505
lradius 25.7825 0 0
lwrist 2.97619 0 0
lhand -10.6478 -23.2521 0
lfingers 7.12502 0 0
lthumb 15.3652 6.21993 0
rclavicle -1.11571e-14 -1.67347e-14 0
rhumerus -44.3899 20.9326 -93.2598
rradius 59.7799 0 0
rwrist -29.1797 0 0
rhand -30.0527 -30.1827 0
rfingers 7.12502 0 0
rthumb -3.36832 -60.1362 0
36
root 8.07483 15.6885 -31.6538 7.73494 -8.35062 -7.03382
lfemur -42.4701 7.16705 -10.4192
ltibia 28.1515 0 0
lfoot -2.6755 9.89066 0
ltoes -8.04611 0 0
rfemur 21.0222 6.59946 29.6483
rtibia -4.23337e-15 0 0
rfoot -9.37644 -1.09966 0
rtoes 0.825462 0 0
lowerback -8.76067 1.36692 3.08785
upperback -0.931059 1.349 3.91458
thorax 3.92568 0.686365 2.49531
lowerneck -21.0867 -4.54725 -11.5078
upperneck 16.1486 -5.74512 14.184
head 9.33821 -1.90198 6.0634
lclavicle -9.12144e-15 -2.11241e-14 0
lhumerus -43.8408 -8.26973 91.9584
lradius 25.6171 0 0
lwrist 2.79095 0 0
lhand -10.1197 -22.6589 0
lfingers 7.12502 0 0
lthumb 15.8725 6.75803 0
rclavicle -9.12144e-15 -2.11241e-14 0
rhumerus -44.5334 20.9657 -93.3732
rradius 59.3268 0 0
rwrist -28.9666 0 0
rhand -29.9873 -30.0316 0
rfingers 7.12502 0 0
rthumb -3.30513 -59.9862 0
